<svg xmlns="http://www.w3.org/2000/svg" width="674" height="674" viewBox="0 0 674 674" role="img" aria-label="Sobralis approved symbol vector">
  <defs>
    <radialGradient id="gold" cx="42%" cy="35%" r="70%">
      <stop offset="0%" stop-color="#E4C47A"/>
      <stop offset="38%" stop-color="#C79A4B"/>
      <stop offset="100%" stop-color="#9F6A2F"/>
    </radialGradient>
    <radialGradient id="sage" cx="35%" cy="28%" r="85%">
      <stop offset="0%" stop-color="#7E8466"/>
      <stop offset="100%" stop-color="#566044"/>
    </radialGradient>
    <filter id="softNoise" x="-20%" y="-20%" width="140%" height="140%">
      <feTurbulence type="fractalNoise" baseFrequency="0.9" numOctaves="2" seed="8" result="noise"/>
      <feColorMatrix type="saturate" values="0"/>
      <feComponentTransfer>
        <feFuncA type="table" tableValues="0 0.12"/>
      </feComponentTransfer>
      <feBlend mode="multiply" in2="SourceGraphic"/>
    </filter>
    <style>
      .orbit { fill: none; stroke: url(#sage); stroke-width: 25; stroke-linecap: round; opacity: .96; }
      .dot { fill: url(#sage); }
      .center { fill: url(#gold); }
    </style>
  </defs>
  <rect width="674" height="674" fill="none"/>
      <path d="M 199.81 167.58 A 218.00 218.00 0 0 1 474.19 167.58" class="orbit"/>
    <path d="M 506.42 199.81 A 218.00 218.00 0 0 1 506.42 474.19" class="orbit"/>
    <path d="M 474.19 506.42 A 218.00 218.00 0 0 1 199.81 506.42" class="orbit"/>
    <path d="M 167.58 474.19 A 218.00 218.00 0 0 1 167.58 199.81" class="orbit"/>
  <circle class="dot" cx="337" cy="68" r="34" filter="url(#softNoise)"/>
  <circle class="dot" cx="606" cy="337" r="34" filter="url(#softNoise)"/>
  <circle class="dot" cx="337" cy="606" r="34" filter="url(#softNoise)"/>
  <circle class="dot" cx="68" cy="337" r="34" filter="url(#softNoise)"/>
  <circle class="center" cx="337" cy="337" r="112" filter="url(#softNoise)"/>
</svg>
